<?xml version="1.0" encoding="UTF-8" standalone="no"?>
<!-- Created with Inkscape (http://www.inkscape.org/) -->

<svg
   width="210mm"
   height="297mm"
   viewBox="0 0 210 297"
   version="1.1"
   id="svg1"
   xml:space="preserve"
   sodipodi:docname="LOGO MARCA MB ADVOCACIA_1.svg"
   inkscape:version="1.3.2 (091e20ef0f, 2023-11-25)"
   xmlns:inkscape="http://www.inkscape.org/namespaces/inkscape"
   xmlns:sodipodi="http://sodipodi.sourceforge.net/DTD/sodipodi-0.dtd"
   xmlns="http://www.w3.org/2000/svg"
   xmlns:svg="http://www.w3.org/2000/svg"><sodipodi:namedview
     id="namedview1"
     pagecolor="#ffffff"
     bordercolor="#666666"
     borderopacity="1.0"
     inkscape:showpageshadow="2"
     inkscape:pageopacity="0.0"
     inkscape:pagecheckerboard="0"
     inkscape:deskcolor="#d1d1d1"
     inkscape:document-units="mm"
     inkscape:zoom="0.3514415"
     inkscape:cx="1461.1251"
     inkscape:cy="823.75019"
     inkscape:window-width="1920"
     inkscape:window-height="1027"
     inkscape:window-x="-8"
     inkscape:window-y="-8"
     inkscape:window-maximized="1"
     inkscape:current-layer="layer-MC0"><inkscape:page
       x="0"
       y="0"
       width="210"
       height="297"
       id="page1"
       margin="0"
       bleed="0" /><inkscape:page
       x="220"
       y="0"
       width="677.33331"
       height="381"
       id="page2"
       margin="0"
       bleed="0" /></sodipodi:namedview><defs
     id="defs1"><clipPath
       clipPathUnits="userSpaceOnUse"
       id="clipPath6"><path
         d="M 0,1080 H 1920 V 0 H 0 Z"
         transform="translate(-1202.214,-605.03711)"
         id="path6" /></clipPath><clipPath
       clipPathUnits="userSpaceOnUse"
       id="clipPath8"><path
         d="M 0,1080 H 1920 V 0 H 0 Z"
         transform="translate(-1288.7773,-654.54982)"
         id="path8" /></clipPath><clipPath
       clipPathUnits="userSpaceOnUse"
       id="clipPath10"><path
         d="M 0,1080 H 1920 V 0 H 0 Z"
         transform="translate(-1321.1758,-644.16502)"
         id="path10" /></clipPath><clipPath
       clipPathUnits="userSpaceOnUse"
       id="clipPath12"><path
         d="M 0,1080 H 1920 V 0 H 0 Z"
         transform="translate(-1405.7628,-607.77832)"
         id="path12" /></clipPath><clipPath
       clipPathUnits="userSpaceOnUse"
       id="clipPath14"><path
         d="M 0,1080 H 1920 V 0 H 0 Z"
         transform="translate(-1007.415,-514.85251)"
         id="path14" /></clipPath><clipPath
       clipPathUnits="userSpaceOnUse"
       id="clipPath16"><path
         d="M 0,1080 H 1920 V 0 H 0 Z"
         transform="translate(-1064.5353,-524.75392)"
         id="path16" /></clipPath><clipPath
       clipPathUnits="userSpaceOnUse"
       id="clipPath18"><path
         d="M 0,1080 H 1920 V 0 H 0 Z"
         transform="translate(-1113.3682,-534.43072)"
         id="path18" /></clipPath><clipPath
       clipPathUnits="userSpaceOnUse"
       id="clipPath20"><path
         d="M 0,1080 H 1920 V 0 H 0 Z"
         transform="translate(-1176.6261,-534.43072)"
         id="path20" /></clipPath><clipPath
       clipPathUnits="userSpaceOnUse"
       id="clipPath22"><path
         d="M 0,1080 H 1920 V 0 H 0 Z"
         transform="translate(-1271.8722,-566.86721)"
         id="path22" /></clipPath><clipPath
       clipPathUnits="userSpaceOnUse"
       id="clipPath24"><path
         d="M 0,1080 H 1920 V 0 H 0 Z"
         id="path24" /></clipPath><clipPath
       clipPathUnits="userSpaceOnUse"
       id="clipPath26"><path
         d="M 0,1080 H 1920 V 0 H 0 Z"
         transform="translate(-1333.1572,-534.43072)"
         id="path26" /></clipPath><clipPath
       clipPathUnits="userSpaceOnUse"
       id="clipPath28"><path
         d="M 0,1080 H 1920 V 0 H 0 Z"
         transform="translate(-1411.7373,-524.75392)"
         id="path28" /></clipPath><clipPath
       clipPathUnits="userSpaceOnUse"
       id="clipPath30"><path
         d="M 0,1080 H 1920 V 0 H 0 Z"
         transform="translate(-983.50202,-446.01461)"
         id="path30" /></clipPath><clipPath
       clipPathUnits="userSpaceOnUse"
       id="clipPath32"><path
         d="M 0,1080 H 1920 V 0 H 0 Z"
         transform="translate(-1042.0566,-441.65921)"
         id="path32" /></clipPath><clipPath
       clipPathUnits="userSpaceOnUse"
       id="clipPath34"><path
         d="M 0,1080 H 1920 V 0 H 0 Z"
         transform="translate(-1105.7091,-437.35251)"
         id="path34" /></clipPath><clipPath
       clipPathUnits="userSpaceOnUse"
       id="clipPath36"><path
         d="M 0,1080 H 1920 V 0 H 0 Z"
         transform="translate(-1164.3135,-441.36131)"
         id="path36" /></clipPath><clipPath
       clipPathUnits="userSpaceOnUse"
       id="clipPath38"><path
         d="M 0,1080 H 1920 V 0 H 0 Z"
         transform="translate(-1224.5508,-436.95701)"
         id="path38" /></clipPath><clipPath
       clipPathUnits="userSpaceOnUse"
       id="clipPath40"><path
         d="M 0,1080 H 1920 V 0 H 0 Z"
         transform="translate(-1263.7521,-446.01461)"
         id="path40" /></clipPath><clipPath
       clipPathUnits="userSpaceOnUse"
       id="clipPath42"><path
         d="M 0,1080 H 1920 V 0 H 0 Z"
         transform="translate(-1332.3546,-436.95701)"
         id="path42" /></clipPath><clipPath
       clipPathUnits="userSpaceOnUse"
       id="clipPath44"><path
         d="M 0,1080 H 1920 V 0 H 0 Z"
         id="path44" /></clipPath><clipPath
       clipPathUnits="userSpaceOnUse"
       id="clipPath46"><path
         d="M 0,1080 H 1920 V 0 H 0 Z"
         transform="translate(-1406.5498,-446.01461)"
         id="path46" /></clipPath><clipPath
       clipPathUnits="userSpaceOnUse"
       id="clipPath48"><path
         d="M 0,1080 H 1920 V 0 H 0 Z"
         transform="translate(-913.88485,-503.91892)"
         id="path48" /></clipPath></defs><g
     inkscape:label="Camada 1"
     inkscape:groupmode="layer"
     id="layer1" /><g
     id="layer-MC0"
     inkscape:groupmode="layer"
     inkscape:label="Camada 1"
     transform="matrix(0.26458333,0,0,0.26458334,220.00001,0)"><path
       id="path1"
       d="M 836.55459,1203.8299 H 1632.3917 V 79.6719 H 836.55459 Z"
       style="fill:#0f4231;fill-opacity:1;fill-rule:nonzero;stroke:none;stroke-width:1.33333" /><path
       id="path2"
       d="m -373.76435,435.89991 v 50.10481 h -9.48461 v -22.95879 l -15.6985,22.30448 h -0.1307 l -15.11033,-20.86597 v 21.52028 h -9.15706 v -50.10481 h 0.0653 l 24.39888,34.60237 24.98626,-34.60237 z"
       style="fill:#fcfbf6;fill-opacity:1;fill-rule:nonzero;stroke:none;stroke-width:1.33333" /><path
       id="path3"
       d="m -328.50084,437.8622 v 9.15783 h -23.3509 v 10.26961 h 20.66993 v 9.15708 h -20.66993 v 10.4003 h 24.2666 v 9.15785 h -33.7512 V 437.8622 Z"
       style="fill:#fcfbf6;fill-opacity:1;fill-rule:nonzero;stroke:none;stroke-width:1.33333" /><path
       id="path4"
       d="m -274.40703,437.8622 v 50.10479 h -0.26142 l -33.68665,-30.41593 0.19606,28.45381 h -9.61531 v -50.03944 h 0.39289 l 33.62052,30.87417 -0.19606,-28.9774 z"
       style="fill:#fcfbf6;fill-opacity:1;fill-rule:nonzero;stroke:none;stroke-width:1.33333" /><path
       id="path5"
       d="m 0,0 c 6.258,0 11.215,1.605 14.87,4.818 3.655,3.211 5.484,7.836 5.484,13.873 0,4.873 -1.012,8.75 -3.033,11.631 -2.022,2.879 -4.376,4.873 -7.061,5.982 -2.688,1.107 -5.221,1.661 -7.602,1.661 H -7.145 V 0 Z m -19.19,49.513 h 18.276 c 7.809,0 14.233,-1.51 19.273,-4.528 5.039,-3.019 8.709,-6.923 11.008,-11.714 C 31.664,28.48 32.814,23.344 32.814,17.86 32.814,11.989 31.43,6.812 28.66,2.326 25.891,-2.16 22.166,-5.608 17.487,-8.018 12.807,-10.427 7.67,-11.631 2.076,-11.631 H -19.19 Z"
       style="fill:#fcfbf6;fill-opacity:1;fill-rule:nonzero;stroke:none;stroke-width:1.69342"
       transform="matrix(0.78736578,0,0,-0.78736578,-246.86924,476.84682)"
       clip-path="url(#clipPath6)" /><path
       id="path7"
       d="m 0,0 v -11.631 h -29.657 v -13.043 h 26.252 v -11.63 H -29.657 V -49.513 H 1.163 V -61.144 H -41.703 V 0 Z"
       style="fill:#fcfbf6;fill-opacity:1;fill-rule:nonzero;stroke:none;stroke-width:1.69342"
       transform="matrix(0.78736578,0,0,-0.78736578,-178.71221,437.86222)"
       clip-path="url(#clipPath8)" /><path
       id="path9"
       d="m 0,0 c -2.658,0 -4.723,-0.526 -6.189,-1.578 -1.468,-1.053 -2.202,-2.631 -2.202,-4.735 0,-1.94 1.066,-3.643 3.199,-5.11 2.131,-1.468 4.97,-2.866 8.515,-4.195 2.879,-1.053 5.344,-2.257 7.394,-3.613 2.048,-1.359 3.751,-3.228 5.108,-5.609 1.357,-2.382 2.036,-5.399 2.036,-9.055 0,-3.157 -0.818,-6.079 -2.451,-8.764 -1.634,-2.687 -4.029,-4.819 -7.185,-6.397 -3.158,-1.578 -6.924,-2.368 -11.299,-2.368 -3.655,0 -7.283,0.54 -10.883,1.62 -3.601,1.08 -6.951,2.728 -10.052,4.944 l 5.317,9.387 c 2.104,-1.551 4.513,-2.825 7.227,-3.821 2.713,-0.997 5.152,-1.496 7.311,-1.496 2.547,0 4.762,0.54 6.646,1.62 1.882,1.08 2.824,2.838 2.824,5.275 0,3.158 -2.962,5.899 -8.888,8.225 -3.49,1.384 -6.397,2.713 -8.723,3.987 -2.326,1.274 -4.335,3.102 -6.023,5.484 -1.69,2.38 -2.534,5.371 -2.534,8.971 0,5.262 1.73,9.499 5.192,12.711 3.461,3.211 8.071,4.956 13.832,5.234 4.541,0 8.335,-0.513 11.382,-1.537 3.045,-1.026 6.009,-2.479 8.888,-4.362 l -4.569,-9.22 C 8.557,-1.468 3.932,0 0,0"
       style="fill:#fcfbf6;fill-opacity:1;fill-rule:nonzero;stroke:none;stroke-width:1.69342"
       transform="matrix(0.78736578,0,0,-0.78736578,-153.20275,446.03885)"
       clip-path="url(#clipPath10)" /><path
       id="path11"
       d="m 0,0 -9.97,13.375 c -2.437,-0.222 -4.472,-1.246 -6.105,-3.074 -1.635,-1.827 -2.451,-3.905 -2.451,-6.231 0,-2.548 0.926,-4.625 2.783,-6.23 1.854,-1.607 4.167,-2.409 6.936,-2.409 3.989,0 6.923,1.522 8.807,4.569 M 10.716,-14.372 6.23,-8.391 c -1.828,-2.16 -4.126,-3.863 -6.895,-5.109 -2.771,-1.246 -6.037,-1.869 -9.803,-1.869 -3.821,0 -7.298,0.804 -10.426,2.409 -3.129,1.606 -5.594,3.835 -7.393,6.688 -1.801,2.851 -2.7,6.078 -2.7,9.678 0,4.098 1.425,7.795 4.278,11.09 2.852,3.295 6.409,5.662 10.675,7.104 l -0.166,0.249 c -1.275,1.661 -2.45,3.655 -3.53,5.981 -1.081,2.326 -1.621,4.624 -1.621,6.896 0,2.326 0.595,4.582 1.787,6.77 1.19,2.188 2.99,3.987 5.399,5.4 2.409,1.413 5.303,2.119 8.682,2.119 3.71,0 7.074,-0.762 10.093,-2.286 3.018,-1.523 5.496,-3.502 7.436,-5.939 L 5.98,32.731 c -1.882,1.995 -3.585,3.517 -5.108,4.57 -1.524,1.052 -3.005,1.578 -4.444,1.578 -1.774,0 -3.103,-0.513 -3.989,-1.536 -0.886,-1.026 -1.329,-2.285 -1.329,-3.78 0,-1.551 0.942,-3.739 2.826,-6.564 L 4.984,12.129 9.138,22.846 H 20.104 L 12.046,2.575 24.673,-14.372 Z"
       style="fill:#fcfbf6;fill-opacity:1;fill-rule:nonzero;stroke:none;stroke-width:1.69342"
       transform="matrix(0.78736578,0,0,-0.78736578,-86.601864,474.68847)"
       clip-path="url(#clipPath12)" /><path
       id="path13"
       d="m 0,0 c 1.882,1.224 2.822,3.061 2.822,5.511 0,4.659 -3.704,6.989 -11.11,6.989 h -7.438 V -1.836 h 8.333 c 3.047,0 5.511,0.611 7.393,1.836 m -15.726,25.044 h 7.885 c 2.389,0 4.241,0.731 5.556,2.195 1.313,1.463 1.972,3.271 1.972,5.421 0,2.209 -0.749,3.898 -2.241,5.063 -1.494,1.165 -3.554,1.747 -6.182,1.747 h -6.99 z M 13.351,14.516 c 1.94,-2.598 2.912,-5.6 2.912,-9.005 0,-6.691 -2.196,-11.604 -6.586,-14.74 -4.391,-3.135 -9.871,-4.704 -16.442,-4.704 h -21.953 v 65.948 h 19.355 c 6.988,0 12.483,-1.42 16.486,-4.257 4.001,-2.838 6.004,-6.944 6.004,-12.32 0,-3.286 -0.688,-6.168 -2.062,-8.647 C 9.69,24.312 7.75,22.325 5.241,20.833 c 3.464,-1.613 6.167,-3.719 8.11,-6.317"
       style="fill:#fcfbf6;fill-opacity:1;fill-rule:nonzero;stroke:none;stroke-width:1.69342"
       transform="matrix(0.78736578,0,0,-0.78736578,-400.24725,547.85508)"
       clip-path="url(#clipPath14)" /><path
       id="path15"
       d="M 0,0 -6.361,16.039 -12.992,0 Z m 4.302,-10.932 h -21.864 l -5.375,-12.902 h -12.814 l 29.748,68.545 h 0.717 L 24.462,-23.834 H 9.408 Z"
       style="fill:#fcfbf6;fill-opacity:1;fill-rule:nonzero;stroke:none;stroke-width:1.69342"
       transform="matrix(0.78736578,0,0,-0.78736578,-355.27273,540.05906)"
       clip-path="url(#clipPath16)" /><path
       id="path17"
       d="m 0,0 h 9.229 c 3.524,0 6.093,1.03 7.706,3.092 1.613,2.06 2.419,4.285 2.419,6.675 0,2.388 -0.687,4.673 -2.061,6.854 -1.374,2.181 -4.031,3.271 -7.974,3.271 H 0 Z M 22.58,-33.511 8.691,-12.544 H 0 V -33.511 H -12.992 V 32.437 H 6.989 c 8.184,0 14.53,-1.988 19.04,-5.959 4.51,-3.973 6.766,-9.395 6.766,-16.263 0,-4.063 -0.852,-7.871 -2.554,-11.424 -1.703,-3.555 -4.316,-6.348 -7.841,-8.378 l 15.323,-23.924 z"
       style="fill:#fcfbf6;fill-opacity:1;fill-rule:nonzero;stroke:none;stroke-width:1.69342"
       transform="matrix(0.78736578,0,0,-0.78736578,-316.82335,532.43988)"
       clip-path="url(#clipPath18)" /><path
       id="path19"
       d="m 0,0 h 9.229 c 3.524,0 6.093,1.03 7.706,3.092 1.613,2.06 2.419,4.285 2.419,6.675 0,2.388 -0.687,4.673 -2.061,6.854 -1.374,2.181 -4.031,3.271 -7.974,3.271 H 0 Z M 22.58,-33.511 8.691,-12.544 H 0 V -33.511 H -12.992 V 32.437 H 6.989 c 8.184,0 14.53,-1.988 19.04,-5.959 4.51,-3.973 6.766,-9.395 6.766,-16.263 0,-4.063 -0.852,-7.871 -2.554,-11.424 -1.703,-3.555 -4.316,-6.348 -7.841,-8.378 l 15.323,-23.924 z"
       style="fill:#fcfbf6;fill-opacity:1;fill-rule:nonzero;stroke:none;stroke-width:1.69342"
       transform="matrix(0.78736578,0,0,-0.78736578,-267.01628,532.43988)"
       clip-path="url(#clipPath20)" /><path
       id="path21"
       d="M 0,0 V -12.545 H -31.988 V -26.612 H -3.674 V -39.156 H -31.988 V -53.403 H 1.254 V -65.947 H -44.98 V 0 Z"
       style="fill:#fcfbf6;fill-opacity:1;fill-rule:nonzero;stroke:none;stroke-width:1.69342"
       transform="matrix(0.78736578,0,0,-0.78736578,-192.02275,506.90049)"
       clip-path="url(#clipPath22)" /><path
       id="path23"
       d="m 1301.35,500.92 h -12.992 v 65.947 h 12.992 z"
       style="fill:#fcfbf6;fill-opacity:1;fill-rule:nonzero;stroke:none;stroke-width:1.69342"
       transform="matrix(0.78736578,0,0,-0.78736578,-1193.4514,953.2323)"
       clip-path="url(#clipPath24)" /><path
       id="path25"
       d="m 0,0 h 9.229 c 3.524,0 6.093,1.03 7.706,3.092 1.613,2.06 2.419,4.285 2.419,6.675 0,2.388 -0.687,4.673 -2.061,6.854 -1.374,2.181 -4.031,3.271 -7.974,3.271 H 0 Z M 22.58,-33.511 8.691,-12.544 H 0 V -33.511 H -12.992 V 32.437 H 6.989 c 8.184,0 14.53,-1.988 19.04,-5.959 4.51,-3.973 6.766,-9.395 6.766,-16.263 0,-4.063 -0.852,-7.871 -2.554,-11.424 -1.703,-3.555 -4.316,-6.348 -7.841,-8.378 l 15.323,-23.924 z"
       style="fill:#fcfbf6;fill-opacity:1;fill-rule:nonzero;stroke:none;stroke-width:1.69342"
       transform="matrix(0.78736578,0,0,-0.78736578,-143.76899,532.43988)"
       clip-path="url(#clipPath26)" /><path
       id="path27"
       d="M 0,0 -6.361,16.039 -12.992,0 Z m 4.302,-10.932 h -21.864 l -5.375,-12.902 h -12.814 l 29.748,68.545 h 0.717 L 24.462,-23.834 H 9.408 Z"
       style="fill:#fcfbf6;fill-opacity:1;fill-rule:nonzero;stroke:none;stroke-width:1.69342"
       transform="matrix(0.78736578,0,0,-0.78736578,-81.897696,540.05906)"
       clip-path="url(#clipPath28)" /><path
       id="path29"
       d="M 0,0 1.337,3.96 H 20.839 L 22.274,0 Z M -6.682,-8.662 9.009,25.985 h 4.9 L 29.649,-8.662 H 24.452 L 10.444,23.214 h 1.98 L -1.583,-8.662 Z"
       style="fill:#f8f2e6;fill-opacity:1;fill-rule:nonzero;stroke:none;stroke-width:1.69342"
       transform="matrix(0.78736578,0,0,-0.78736578,-419.07553,602.05569)"
       clip-path="url(#clipPath30)" /><path
       id="path31"
       d="m 0,0 h 9.354 c 2.872,0 5.354,0.544 7.451,1.633 2.094,1.089 3.719,2.615 4.875,4.578 1.154,1.963 1.732,4.232 1.732,6.807 0,2.605 -0.578,4.882 -1.732,6.83 -1.156,1.946 -2.781,3.464 -4.875,4.553 -2.097,1.089 -4.579,1.634 -7.451,1.634 H 0 Z M -4.949,-4.307 V 30.341 H 9.652 c 3.696,0 6.954,-0.726 9.776,-2.178 2.821,-1.452 5.015,-3.481 6.583,-6.088 1.566,-2.607 2.35,-5.627 2.35,-9.057 0,-3.433 -0.784,-6.453 -2.35,-9.059 -1.568,-2.606 -3.762,-4.636 -6.583,-6.088 -2.822,-1.452 -6.08,-2.178 -9.776,-2.178 z"
       style="fill:#f8f2e6;fill-opacity:1;fill-rule:nonzero;stroke:none;stroke-width:1.69342"
       transform="matrix(0.78736578,0,0,-0.78736578,-372.97164,605.48498)"
       clip-path="url(#clipPath32)" /><path
       id="path33"
       d="m 0,0 -15.244,34.647 h 5.346 L 4.108,2.673 H 1.04 l 14.106,31.974 h 4.95 L 4.9,0 Z"
       style="fill:#f8f2e6;fill-opacity:1;fill-rule:nonzero;stroke:none;stroke-width:1.69342"
       transform="matrix(0.78736578,0,0,-0.78736578,-322.8539,608.87593)"
       clip-path="url(#clipPath34)" /><path
       id="path35"
       d="m 0,0 c 1.914,0 3.688,0.33 5.321,0.99 1.634,0.66 3.052,1.592 4.257,2.797 1.204,1.204 2.145,2.614 2.821,4.232 0.676,1.617 1.015,3.382 1.015,5.296 0,1.914 -0.339,3.679 -1.015,5.296 -0.676,1.617 -1.617,3.028 -2.821,4.232 C 8.373,24.047 6.955,24.979 5.321,25.64 3.688,26.3 1.914,26.63 0,26.63 c -1.947,0 -3.736,-0.33 -5.37,-0.99 -1.633,-0.661 -3.061,-1.593 -4.281,-2.797 -1.222,-1.204 -2.17,-2.615 -2.846,-4.232 -0.677,-1.617 -1.015,-3.382 -1.015,-5.296 0,-1.914 0.338,-3.679 1.015,-5.296 0.676,-1.618 1.624,-3.028 2.846,-4.232 C -8.431,2.582 -7.003,1.65 -5.37,0.99 -3.736,0.33 -1.947,0 0,0 m 0,-4.404 c -2.64,0 -5.09,0.445 -7.35,1.336 -2.26,0.89 -4.215,2.135 -5.865,3.737 -1.65,1.6 -2.937,3.473 -3.861,5.617 -0.924,2.145 -1.386,4.487 -1.386,7.029 0,2.54 0.462,4.883 1.386,7.029 0.924,2.144 2.211,4.016 3.861,5.618 1.65,1.6 3.596,2.846 5.84,3.736 2.244,0.892 4.703,1.337 7.375,1.337 2.64,0 5.074,-0.438 7.301,-1.311 2.227,-0.875 4.175,-2.113 5.841,-3.713 1.666,-1.601 2.953,-3.473 3.861,-5.617 0.907,-2.146 1.36,-4.505 1.36,-7.079 0,-2.574 -0.453,-4.933 -1.36,-7.078 C 16.095,4.092 14.808,2.22 13.142,0.619 11.476,-0.981 9.528,-2.219 7.301,-3.093 5.074,-3.968 2.64,-4.404 0,-4.404"
       style="fill:#f8f2e6;fill-opacity:1;fill-rule:nonzero;stroke:none;stroke-width:1.69342"
       transform="matrix(0.78736578,0,0,-0.78736578,-276.71074,605.71954)"
       clip-path="url(#clipPath36)" /><path
       id="path37"
       d="m 0,0 c -2.64,0 -5.073,0.437 -7.301,1.312 -2.226,0.874 -4.157,2.111 -5.791,3.711 -1.633,1.601 -2.912,3.473 -3.836,5.619 -0.924,2.144 -1.385,4.504 -1.385,7.078 0,2.573 0.461,4.932 1.385,7.078 0.924,2.144 2.211,4.016 3.862,5.617 1.649,1.601 3.587,2.838 5.815,3.713 2.228,0.873 4.66,1.311 7.301,1.311 2.673,0 5.139,-0.454 7.399,-1.361 2.261,-0.908 4.183,-2.252 5.767,-4.034 L 9.999,26.926 c -1.32,1.386 -2.806,2.417 -4.455,3.094 -1.65,0.675 -3.415,1.014 -5.296,1.014 -1.947,0 -3.754,-0.33 -5.42,-0.99 -1.667,-0.66 -3.11,-1.584 -4.331,-2.772 -1.222,-1.188 -2.17,-2.598 -2.846,-4.232 -0.676,-1.633 -1.014,-3.407 -1.014,-5.32 0,-1.914 0.338,-3.688 1.014,-5.322 0.676,-1.633 1.624,-3.044 2.846,-4.232 1.221,-1.187 2.664,-2.111 4.331,-2.771 1.666,-0.661 3.473,-0.991 5.42,-0.991 1.881,0 3.646,0.339 5.296,1.015 1.649,0.677 3.135,1.725 4.455,3.144 L 13.216,5.444 C 11.632,3.662 9.71,2.309 7.449,1.386 5.189,0.461 2.706,0 0,0"
       style="fill:#f8f2e6;fill-opacity:1;fill-rule:nonzero;stroke:none;stroke-width:1.69342"
       transform="matrix(0.78736578,0,0,-0.78736578,-229.28196,609.18734)"
       clip-path="url(#clipPath38)" /><path
       id="path39"
       d="M 0,0 1.337,3.96 H 20.839 L 22.274,0 Z M -6.682,-8.662 9.009,25.985 h 4.9 L 29.649,-8.662 H 24.452 L 10.444,23.214 h 1.98 L -1.583,-8.662 Z"
       style="fill:#f8f2e6;fill-opacity:1;fill-rule:nonzero;stroke:none;stroke-width:1.69342"
       transform="matrix(0.78736578,0,0,-0.78736578,-198.41623,602.05569)"
       clip-path="url(#clipPath40)" /><path
       id="path41"
       d="m 0,0 c -2.64,0 -5.073,0.437 -7.301,1.312 -2.226,0.874 -4.157,2.111 -5.791,3.711 -1.633,1.601 -2.912,3.473 -3.836,5.619 -0.924,2.144 -1.385,4.504 -1.385,7.078 0,2.573 0.461,4.932 1.385,7.078 0.924,2.144 2.211,4.016 3.862,5.617 1.649,1.601 3.587,2.838 5.815,3.713 2.228,0.873 4.66,1.311 7.301,1.311 2.673,0 5.139,-0.454 7.399,-1.361 2.261,-0.908 4.183,-2.252 5.767,-4.034 L 9.999,26.926 c -1.32,1.386 -2.806,2.417 -4.455,3.094 -1.65,0.675 -3.415,1.014 -5.296,1.014 -1.947,0 -3.754,-0.33 -5.42,-0.99 -1.667,-0.66 -3.11,-1.584 -4.331,-2.772 -1.222,-1.188 -2.17,-2.598 -2.846,-4.232 -0.676,-1.633 -1.014,-3.407 -1.014,-5.32 0,-1.914 0.338,-3.688 1.014,-5.322 0.676,-1.633 1.624,-3.044 2.846,-4.232 1.221,-1.187 2.664,-2.111 4.331,-2.771 1.666,-0.661 3.473,-0.991 5.42,-0.991 1.881,0 3.646,0.339 5.296,1.015 1.649,0.677 3.135,1.725 4.455,3.144 L 13.216,5.444 C 11.632,3.662 9.71,2.309 7.449,1.386 5.189,0.461 2.706,0 0,0"
       style="fill:#f8f2e6;fill-opacity:1;fill-rule:nonzero;stroke:none;stroke-width:1.69342"
       transform="matrix(0.78736578,0,0,-0.78736578,-144.40098,609.18734)"
       clip-path="url(#clipPath42)" /><path
       id="path43"
       d="m 1370.962,472 h 4.95 v -34.647 h -4.95 z"
       style="fill:#f8f2e6;fill-opacity:1;fill-rule:nonzero;stroke:none;stroke-width:1.69342"
       transform="matrix(0.78736578,0,0,-0.78736578,-1193.4514,953.2323)"
       clip-path="url(#clipPath44)" /><path
       id="path45"
       d="M 0,0 1.337,3.96 H 20.839 L 22.274,0 Z M -6.682,-8.662 9.009,25.985 h 4.9 L 29.649,-8.662 H 24.452 L 10.444,23.214 h 1.98 L -1.583,-8.662 Z"
       style="fill:#f8f2e6;fill-opacity:1;fill-rule:nonzero;stroke:none;stroke-width:1.69342"
       transform="matrix(0.78736578,0,0,-0.78736578,-85.982168,602.05569)"
       clip-path="url(#clipPath46)" /><path
       id="path47"
       d="m 0,0 c 0,19.797 -9.723,38.443 -26.008,49.877 l -1.691,1.187 1.361,1.555 c 9.557,10.916 14.82,24.889 14.82,39.346 0,32.983 -26.834,59.816 -59.816,59.816 h -127.271 l -88.492,-123.682 -1.51,-2.11 -1.509,2.11 -80.358,112.292 h -29.684 V -58.351 h 28.771 v 144.795 5.784 l 3.366,-4.704 67.676,-94.571 h 23.476 l 75.8,105.923 17.25,23.38 0.556,0.754 h 0.937 110.992 c 17.118,0 31.045,-13.927 31.045,-31.045 0,-17.119 -13.927,-31.046 -31.045,-31.046 H -117.57 V 32.147 h 46.236 10.415 c 17.726,0 32.148,-14.42 32.148,-32.147 0,-17.727 -14.422,-32.148 -32.148,-32.148 h -120.128 -1.856 v 1.856 109.246 L -211.675,38.749 V -60.92 H -60.919 C -27.328,-60.92 0,-33.592 0,0"
       style="fill:#f8f2e6;fill-opacity:1;fill-rule:nonzero;stroke:none;stroke-width:1.69342"
       transform="matrix(0.78736578,0,0,-0.78736578,-473.88972,556.46383)"
       clip-path="url(#clipPath48)" /><path
       id="path49"
       d="m 0,0 c 0,19.797 -9.723,38.443 -26.008,49.877 l -1.691,1.187 1.361,1.555 c 9.557,10.916 14.82,24.889 14.82,39.346 0,32.983 -26.834,59.816 -59.816,59.816 h -127.271 l -88.492,-123.682 -1.51,-2.11 -1.509,2.11 -80.358,112.292 h -29.684 V -58.351 h 28.771 v 144.795 5.784 l 3.366,-4.704 67.676,-94.571 h 23.476 l 75.8,105.923 17.25,23.38 0.556,0.754 h 0.937 110.992 c 17.118,0 31.045,-13.927 31.045,-31.045 0,-17.119 -13.927,-31.046 -31.045,-31.046 H -117.57 V 32.147 h 46.236 10.415 c 17.726,0 32.148,-14.42 32.148,-32.147 0,-17.727 -14.422,-32.148 -32.148,-32.148 h -120.128 -1.856 v 1.856 109.246 L -211.675,38.749 V -60.92 H -60.919 C -27.328,-60.92 0,-33.592 0,0"
       style="fill:#f8f2e6;fill-opacity:1;fill-rule:nonzero;stroke:none;stroke-width:2.29609"
       transform="matrix(0.58070011,0,0,-0.58070011,488.11551,608.90982)"
       clip-path="url(#clipPath48)" /><path
       id="path50"
       d="m 272.5275,674.0777 v 36.95343 h -6.99511 V 694.0985 l -11.578,16.45006 h -0.0964 l -11.14421,-15.38912 v 15.87169 h -6.75354 V 674.0777 h 0.0482 l 17.99473,25.52003 18.42794,-25.52003 z"
       style="fill:#fcfbf6;fill-opacity:1;fill-rule:nonzero;stroke:none;stroke-width:1.33333" /><path
       id="path51"
       d="m 305.91037,675.52492 v 6.75412 h -17.22182 v 7.57407 h 15.24454 v 6.75355 h -15.24454 v 7.67046 h 17.89718 v 6.75412 h -24.89229 v -35.50632 z"
       style="fill:#fcfbf6;fill-opacity:1;fill-rule:nonzero;stroke:none;stroke-width:1.33333" /><path
       id="path52"
       d="m 345.80578,675.52492 v 36.95343 h -0.1928 l -24.84466,-22.43244 0.14459,20.98533 h -7.09151 v -36.90523 h 0.28976 l 24.7959,22.77042 -0.1446,-21.37151 z"
       style="fill:#fcfbf6;fill-opacity:1;fill-rule:nonzero;stroke:none;stroke-width:1.33333" /><path
       id="path53"
       d="m 0,0 c 6.258,0 11.215,1.605 14.87,4.818 3.655,3.211 5.484,7.836 5.484,13.873 0,4.873 -1.012,8.75 -3.033,11.631 -2.022,2.879 -4.376,4.873 -7.061,5.982 -2.688,1.107 -5.221,1.661 -7.602,1.661 H -7.145 V 0 Z m -19.19,49.513 h 18.276 c 7.809,0 14.233,-1.51 19.273,-4.528 5.039,-3.019 8.709,-6.923 11.008,-11.714 C 31.664,28.48 32.814,23.344 32.814,17.86 32.814,11.989 31.43,6.812 28.66,2.326 25.891,-2.16 22.166,-5.608 17.487,-8.018 12.807,-10.427 7.67,-11.631 2.076,-11.631 H -19.19 Z"
       style="fill:#fcfbf6;fill-opacity:1;fill-rule:nonzero;stroke:none;stroke-width:2.29609"
       transform="matrix(0.58070011,0,0,-0.58070011,366.11553,704.27696)"
       clip-path="url(#clipPath6)" /><path
       id="path54"
       d="m 0,0 v -11.631 h -29.657 v -13.043 h 26.252 v -11.63 H -29.657 V -49.513 H 1.163 V -61.144 H -41.703 V 0 Z"
       style="fill:#fcfbf6;fill-opacity:1;fill-rule:nonzero;stroke:none;stroke-width:2.29609"
       transform="matrix(0.58070011,0,0,-0.58070011,416.38288,675.52493)"
       clip-path="url(#clipPath8)" /><path
       id="path55"
       d="m 0,0 c -2.658,0 -4.723,-0.526 -6.189,-1.578 -1.468,-1.053 -2.202,-2.631 -2.202,-4.735 0,-1.94 1.066,-3.643 3.199,-5.11 2.131,-1.468 4.97,-2.866 8.515,-4.195 2.879,-1.053 5.344,-2.257 7.394,-3.613 2.048,-1.359 3.751,-3.228 5.108,-5.609 1.357,-2.382 2.036,-5.399 2.036,-9.055 0,-3.157 -0.818,-6.079 -2.451,-8.764 -1.634,-2.687 -4.029,-4.819 -7.185,-6.397 -3.158,-1.578 -6.924,-2.368 -11.299,-2.368 -3.655,0 -7.283,0.54 -10.883,1.62 -3.601,1.08 -6.951,2.728 -10.052,4.944 l 5.317,9.387 c 2.104,-1.551 4.513,-2.825 7.227,-3.821 2.713,-0.997 5.152,-1.496 7.311,-1.496 2.547,0 4.762,0.54 6.646,1.62 1.882,1.08 2.824,2.838 2.824,5.275 0,3.158 -2.962,5.899 -8.888,8.225 -3.49,1.384 -6.397,2.713 -8.723,3.987 -2.326,1.274 -4.335,3.102 -6.023,5.484 -1.69,2.38 -2.534,5.371 -2.534,8.971 0,5.262 1.73,9.499 5.192,12.711 3.461,3.211 8.071,4.956 13.832,5.234 4.541,0 8.335,-0.513 11.382,-1.537 3.045,-1.026 6.009,-2.479 8.888,-4.362 l -4.569,-9.22 C 8.557,-1.468 3.932,0 0,0"
       style="fill:#fcfbf6;fill-opacity:1;fill-rule:nonzero;stroke:none;stroke-width:2.29609"
       transform="matrix(0.58070011,0,0,-0.58070011,435.19669,681.55538)"
       clip-path="url(#clipPath10)" /><path
       id="path56"
       d="m 0,0 -9.97,13.375 c -2.437,-0.222 -4.472,-1.246 -6.105,-3.074 -1.635,-1.827 -2.451,-3.905 -2.451,-6.231 0,-2.548 0.926,-4.625 2.783,-6.23 1.854,-1.607 4.167,-2.409 6.936,-2.409 3.989,0 6.923,1.522 8.807,4.569 M 10.716,-14.372 6.23,-8.391 c -1.828,-2.16 -4.126,-3.863 -6.895,-5.109 -2.771,-1.246 -6.037,-1.869 -9.803,-1.869 -3.821,0 -7.298,0.804 -10.426,2.409 -3.129,1.606 -5.594,3.835 -7.393,6.688 -1.801,2.851 -2.7,6.078 -2.7,9.678 0,4.098 1.425,7.795 4.278,11.09 2.852,3.295 6.409,5.662 10.675,7.104 l -0.166,0.249 c -1.275,1.661 -2.45,3.655 -3.53,5.981 -1.081,2.326 -1.621,4.624 -1.621,6.896 0,2.326 0.595,4.582 1.787,6.77 1.19,2.188 2.99,3.987 5.399,5.4 2.409,1.413 5.303,2.119 8.682,2.119 3.71,0 7.074,-0.762 10.093,-2.286 3.018,-1.523 5.496,-3.502 7.436,-5.939 L 5.98,32.731 c -1.882,1.995 -3.585,3.517 -5.108,4.57 -1.524,1.052 -3.005,1.578 -4.444,1.578 -1.774,0 -3.103,-0.513 -3.989,-1.536 -0.886,-1.026 -1.329,-2.285 -1.329,-3.78 0,-1.551 0.942,-3.739 2.826,-6.564 L 4.984,12.129 9.138,22.846 H 20.104 L 12.046,2.575 24.673,-14.372 Z"
       style="fill:#fcfbf6;fill-opacity:1;fill-rule:nonzero;stroke:none;stroke-width:2.29609"
       transform="matrix(0.58070011,0,0,-0.58070011,484.31635,702.68514)"
       clip-path="url(#clipPath12)" /><path
       id="path57"
       d="m 0,0 c 1.882,1.224 2.822,3.061 2.822,5.511 0,4.659 -3.704,6.989 -11.11,6.989 h -7.438 V -1.836 h 8.333 c 3.047,0 5.511,0.611 7.393,1.836 m -15.726,25.044 h 7.885 c 2.389,0 4.241,0.731 5.556,2.195 1.313,1.463 1.972,3.271 1.972,5.421 0,2.209 -0.749,3.898 -2.241,5.063 -1.494,1.165 -3.554,1.747 -6.182,1.747 h -6.99 z M 13.351,14.516 c 1.94,-2.598 2.912,-5.6 2.912,-9.005 0,-6.691 -2.196,-11.604 -6.586,-14.74 -4.391,-3.135 -9.871,-4.704 -16.442,-4.704 h -21.953 v 65.948 h 19.355 c 6.988,0 12.483,-1.42 16.486,-4.257 4.001,-2.838 6.004,-6.944 6.004,-12.32 0,-3.286 -0.688,-6.168 -2.062,-8.647 C 9.69,24.312 7.75,22.325 5.241,20.833 c 3.464,-1.613 6.167,-3.719 8.11,-6.317"
       style="fill:#fcfbf6;fill-opacity:1;fill-rule:nonzero;stroke:none;stroke-width:2.29609"
       transform="matrix(0.58070011,0,0,-0.58070011,252.99577,756.64716)"
       clip-path="url(#clipPath14)" /><path
       id="path58"
       d="M 0,0 -6.361,16.039 -12.992,0 Z m 4.302,-10.932 h -21.864 l -5.375,-12.902 h -12.814 l 29.748,68.545 h 0.717 L 24.462,-23.834 H 9.408 Z"
       style="fill:#fcfbf6;fill-opacity:1;fill-rule:nonzero;stroke:none;stroke-width:2.29609"
       transform="matrix(0.58070011,0,0,-0.58070011,286.16549,750.89742)"
       clip-path="url(#clipPath16)" /><path
       id="path59"
       d="m 0,0 h 9.229 c 3.524,0 6.093,1.03 7.706,3.092 1.613,2.06 2.419,4.285 2.419,6.675 0,2.388 -0.687,4.673 -2.061,6.854 -1.374,2.181 -4.031,3.271 -7.974,3.271 H 0 Z M 22.58,-33.511 8.691,-12.544 H 0 V -33.511 H -12.992 V 32.437 H 6.989 c 8.184,0 14.53,-1.988 19.04,-5.959 4.51,-3.973 6.766,-9.395 6.766,-16.263 0,-4.063 -0.852,-7.871 -2.554,-11.424 -1.703,-3.555 -4.316,-6.348 -7.841,-8.378 l 15.323,-23.924 z"
       style="fill:#fcfbf6;fill-opacity:1;fill-rule:nonzero;stroke:none;stroke-width:2.29609"
       transform="matrix(0.58070011,0,0,-0.58070011,314.52279,745.2781)"
       clip-path="url(#clipPath18)" /><path
       id="path60"
       d="m 0,0 h 9.229 c 3.524,0 6.093,1.03 7.706,3.092 1.613,2.06 2.419,4.285 2.419,6.675 0,2.388 -0.687,4.673 -2.061,6.854 -1.374,2.181 -4.031,3.271 -7.974,3.271 H 0 Z M 22.58,-33.511 8.691,-12.544 H 0 V -33.511 H -12.992 V 32.437 H 6.989 c 8.184,0 14.53,-1.988 19.04,-5.959 4.51,-3.973 6.766,-9.395 6.766,-16.263 0,-4.063 -0.852,-7.871 -2.554,-11.424 -1.703,-3.555 -4.316,-6.348 -7.841,-8.378 l 15.323,-23.924 z"
       style="fill:#fcfbf6;fill-opacity:1;fill-rule:nonzero;stroke:none;stroke-width:2.29609"
       transform="matrix(0.58070011,0,0,-0.58070011,351.25663,745.2781)"
       clip-path="url(#clipPath20)" /><path
       id="path61"
       d="M 0,0 V -12.545 H -31.988 V -26.612 H -3.674 V -39.156 H -31.988 V -53.403 H 1.254 V -65.947 H -44.98 V 0 Z"
       style="fill:#fcfbf6;fill-opacity:1;fill-rule:nonzero;stroke:none;stroke-width:2.29609"
       transform="matrix(0.58070011,0,0,-0.58070011,406.56606,726.44223)"
       clip-path="url(#clipPath22)" /><path
       id="path62"
       d="m 1301.35,500.92 h -12.992 v 65.947 h 12.992 z"
       style="fill:#fcfbf6;fill-opacity:1;fill-rule:nonzero;stroke:none;stroke-width:2.29609"
       transform="matrix(0.58070011,0,0,-0.58070011,-332.01015,1055.622)"
       clip-path="url(#clipPath24)" /><path
       id="path63"
       d="m 0,0 h 9.229 c 3.524,0 6.093,1.03 7.706,3.092 1.613,2.06 2.419,4.285 2.419,6.675 0,2.388 -0.687,4.673 -2.061,6.854 -1.374,2.181 -4.031,3.271 -7.974,3.271 H 0 Z M 22.58,-33.511 8.691,-12.544 H 0 V -33.511 H -12.992 V 32.437 H 6.989 c 8.184,0 14.53,-1.988 19.04,-5.959 4.51,-3.973 6.766,-9.395 6.766,-16.263 0,-4.063 -0.852,-7.871 -2.554,-11.424 -1.703,-3.555 -4.316,-6.348 -7.841,-8.378 l 15.323,-23.924 z"
       style="fill:#fcfbf6;fill-opacity:1;fill-rule:nonzero;stroke:none;stroke-width:2.29609"
       transform="matrix(0.58070011,0,0,-0.58070011,442.1543,745.2781)"
       clip-path="url(#clipPath26)" /><path
       id="path64"
       d="M 0,0 -6.361,16.039 -12.992,0 Z m 4.302,-10.932 h -21.864 l -5.375,-12.902 h -12.814 l 29.748,68.545 h 0.717 L 24.462,-23.834 H 9.408 Z"
       style="fill:#fcfbf6;fill-opacity:1;fill-rule:nonzero;stroke:none;stroke-width:2.29609"
       transform="matrix(0.58070011,0,0,-0.58070011,487.78578,750.89742)"
       clip-path="url(#clipPath28)" /><path
       id="path65"
       d="M 0,0 1.337,3.96 H 20.839 L 22.274,0 Z M -6.682,-8.662 9.009,25.985 h 4.9 L 29.649,-8.662 H 24.452 L 10.444,23.214 h 1.98 L -1.583,-8.662 Z"
       style="fill:#f8f2e6;fill-opacity:1;fill-rule:nonzero;stroke:none;stroke-width:2.29609"
       transform="matrix(0.58070011,0,0,-0.58070011,239.10949,796.62135)"
       clip-path="url(#clipPath30)" /><path
       id="path66"
       d="m 0,0 h 9.354 c 2.872,0 5.354,0.544 7.451,1.633 2.094,1.089 3.719,2.615 4.875,4.578 1.154,1.963 1.732,4.232 1.732,6.807 0,2.605 -0.578,4.882 -1.732,6.83 -1.156,1.946 -2.781,3.464 -4.875,4.553 -2.097,1.089 -4.579,1.634 -7.451,1.634 H 0 Z M -4.949,-4.307 V 30.341 H 9.652 c 3.696,0 6.954,-0.726 9.776,-2.178 2.821,-1.452 5.015,-3.481 6.583,-6.088 1.566,-2.607 2.35,-5.627 2.35,-9.057 0,-3.433 -0.784,-6.453 -2.35,-9.059 -1.568,-2.606 -3.762,-4.636 -6.583,-6.088 -2.822,-1.452 -6.08,-2.178 -9.776,-2.178 z"
       style="fill:#f8f2e6;fill-opacity:1;fill-rule:nonzero;stroke:none;stroke-width:2.29609"
       transform="matrix(0.58070011,0,0,-0.58070011,273.11215,799.15056)"
       clip-path="url(#clipPath32)" /><path
       id="path67"
       d="m 0,0 -15.244,34.647 h 5.346 L 4.108,2.673 H 1.04 l 14.106,31.974 h 4.95 L 4.9,0 Z"
       style="fill:#f8f2e6;fill-opacity:1;fill-rule:nonzero;stroke:none;stroke-width:2.29609"
       transform="matrix(0.58070011,0,0,-0.58070011,310.07512,801.65145)"
       clip-path="url(#clipPath34)" /><path
       id="path68"
       d="m 0,0 c 1.914,0 3.688,0.33 5.321,0.99 1.634,0.66 3.052,1.592 4.257,2.797 1.204,1.204 2.145,2.614 2.821,4.232 0.676,1.617 1.015,3.382 1.015,5.296 0,1.914 -0.339,3.679 -1.015,5.296 -0.676,1.617 -1.617,3.028 -2.821,4.232 C 8.373,24.047 6.955,24.979 5.321,25.64 3.688,26.3 1.914,26.63 0,26.63 c -1.947,0 -3.736,-0.33 -5.37,-0.99 -1.633,-0.661 -3.061,-1.593 -4.281,-2.797 -1.222,-1.204 -2.17,-2.615 -2.846,-4.232 -0.677,-1.617 -1.015,-3.382 -1.015,-5.296 0,-1.914 0.338,-3.679 1.015,-5.296 0.676,-1.618 1.624,-3.028 2.846,-4.232 C -8.431,2.582 -7.003,1.65 -5.37,0.99 -3.736,0.33 -1.947,0 0,0 m 0,-4.404 c -2.64,0 -5.09,0.445 -7.35,1.336 -2.26,0.89 -4.215,2.135 -5.865,3.737 -1.65,1.6 -2.937,3.473 -3.861,5.617 -0.924,2.145 -1.386,4.487 -1.386,7.029 0,2.54 0.462,4.883 1.386,7.029 0.924,2.144 2.211,4.016 3.861,5.618 1.65,1.6 3.596,2.846 5.84,3.736 2.244,0.892 4.703,1.337 7.375,1.337 2.64,0 5.074,-0.438 7.301,-1.311 2.227,-0.875 4.175,-2.113 5.841,-3.713 1.666,-1.601 2.953,-3.473 3.861,-5.617 0.907,-2.146 1.36,-4.505 1.36,-7.079 0,-2.574 -0.453,-4.933 -1.36,-7.078 C 16.095,4.092 14.808,2.22 13.142,0.619 11.476,-0.981 9.528,-2.219 7.301,-3.093 5.074,-3.968 2.64,-4.404 0,-4.404"
       style="fill:#f8f2e6;fill-opacity:1;fill-rule:nonzero;stroke:none;stroke-width:2.29609"
       transform="matrix(0.58070011,0,0,-0.58070011,344.10675,799.32348)"
       clip-path="url(#clipPath36)" /><path
       id="path69"
       d="m 0,0 c -2.64,0 -5.073,0.437 -7.301,1.312 -2.226,0.874 -4.157,2.111 -5.791,3.711 -1.633,1.601 -2.912,3.473 -3.836,5.619 -0.924,2.144 -1.385,4.504 -1.385,7.078 0,2.573 0.461,4.932 1.385,7.078 0.924,2.144 2.211,4.016 3.862,5.617 1.649,1.601 3.587,2.838 5.815,3.713 2.228,0.873 4.66,1.311 7.301,1.311 2.673,0 5.139,-0.454 7.399,-1.361 2.261,-0.908 4.183,-2.252 5.767,-4.034 L 9.999,26.926 c -1.32,1.386 -2.806,2.417 -4.455,3.094 -1.65,0.675 -3.415,1.014 -5.296,1.014 -1.947,0 -3.754,-0.33 -5.42,-0.99 -1.667,-0.66 -3.11,-1.584 -4.331,-2.772 -1.222,-1.188 -2.17,-2.598 -2.846,-4.232 -0.676,-1.633 -1.014,-3.407 -1.014,-5.32 0,-1.914 0.338,-3.688 1.014,-5.322 0.676,-1.633 1.624,-3.044 2.846,-4.232 1.221,-1.187 2.664,-2.111 4.331,-2.771 1.666,-0.661 3.473,-0.991 5.42,-0.991 1.881,0 3.646,0.339 5.296,1.015 1.649,0.677 3.135,1.725 4.455,3.144 L 13.216,5.444 C 11.632,3.662 9.71,2.309 7.449,1.386 5.189,0.461 2.706,0 0,0"
       style="fill:#f8f2e6;fill-opacity:1;fill-rule:nonzero;stroke:none;stroke-width:2.29609"
       transform="matrix(0.58070011,0,0,-0.58070011,379.08655,801.88108)"
       clip-path="url(#clipPath38)" /><path
       id="path70"
       d="M 0,0 1.337,3.96 H 20.839 L 22.274,0 Z M -6.682,-8.662 9.009,25.985 h 4.9 L 29.649,-8.662 H 24.452 L 10.444,23.214 h 1.98 L -1.583,-8.662 Z"
       style="fill:#f8f2e6;fill-opacity:1;fill-rule:nonzero;stroke:none;stroke-width:2.29609"
       transform="matrix(0.58070011,0,0,-0.58070011,401.85072,796.62135)"
       clip-path="url(#clipPath40)" /><path
       id="path71"
       d="m 0,0 c -2.64,0 -5.073,0.437 -7.301,1.312 -2.226,0.874 -4.157,2.111 -5.791,3.711 -1.633,1.601 -2.912,3.473 -3.836,5.619 -0.924,2.144 -1.385,4.504 -1.385,7.078 0,2.573 0.461,4.932 1.385,7.078 0.924,2.144 2.211,4.016 3.862,5.617 1.649,1.601 3.587,2.838 5.815,3.713 2.228,0.873 4.66,1.311 7.301,1.311 2.673,0 5.139,-0.454 7.399,-1.361 2.261,-0.908 4.183,-2.252 5.767,-4.034 L 9.999,26.926 c -1.32,1.386 -2.806,2.417 -4.455,3.094 -1.65,0.675 -3.415,1.014 -5.296,1.014 -1.947,0 -3.754,-0.33 -5.42,-0.99 -1.667,-0.66 -3.11,-1.584 -4.331,-2.772 -1.222,-1.188 -2.17,-2.598 -2.846,-4.232 -0.676,-1.633 -1.014,-3.407 -1.014,-5.32 0,-1.914 0.338,-3.688 1.014,-5.322 0.676,-1.633 1.624,-3.044 2.846,-4.232 1.221,-1.187 2.664,-2.111 4.331,-2.771 1.666,-0.661 3.473,-0.991 5.42,-0.991 1.881,0 3.646,0.339 5.296,1.015 1.649,0.677 3.135,1.725 4.455,3.144 L 13.216,5.444 C 11.632,3.662 9.71,2.309 7.449,1.386 5.189,0.461 2.706,0 0,0"
       style="fill:#f8f2e6;fill-opacity:1;fill-rule:nonzero;stroke:none;stroke-width:2.29609"
       transform="matrix(0.58070011,0,0,-0.58070011,441.68819,801.88108)"
       clip-path="url(#clipPath42)" /><path
       id="path72"
       d="m 1370.962,472 h 4.95 v -34.647 h -4.95 z"
       style="fill:#f8f2e6;fill-opacity:1;fill-rule:nonzero;stroke:none;stroke-width:2.29609"
       transform="matrix(0.58070011,0,0,-0.58070011,-332.01015,1055.622)"
       clip-path="url(#clipPath44)" /><path
       id="path73"
       d="M 0,0 1.337,3.96 H 20.839 L 22.274,0 Z M -6.682,-8.662 9.009,25.985 h 4.9 L 29.649,-8.662 H 24.452 L 10.444,23.214 h 1.98 L -1.583,-8.662 Z"
       style="fill:#f8f2e6;fill-opacity:1;fill-rule:nonzero;stroke:none;stroke-width:2.29609"
       transform="matrix(0.58070011,0,0,-0.58070011,484.77339,796.62135)"
       clip-path="url(#clipPath46)" /><path
       id="path74"
       d="m 0,0 c 0,19.797 -9.723,38.443 -26.008,49.877 l -1.691,1.187 1.361,1.555 c 9.557,10.916 14.82,24.889 14.82,39.346 0,32.983 -26.834,59.816 -59.816,59.816 h -127.271 l -88.492,-123.682 -1.51,-2.11 -1.509,2.11 -80.358,112.292 h -29.684 V -58.351 h 28.771 v 144.795 5.784 l 3.366,-4.704 67.676,-94.571 h 23.476 l 75.8,105.923 17.25,23.38 0.556,0.754 h 0.937 110.992 c 17.118,0 31.045,-13.927 31.045,-31.045 0,-17.119 -13.927,-31.046 -31.045,-31.046 H -117.57 V 32.147 h 46.236 10.415 c 17.726,0 32.148,-14.42 32.148,-32.147 0,-17.727 -14.422,-32.148 -32.148,-32.148 h -120.128 -1.856 v 1.856 109.246 L -211.675,38.749 V -60.92 H -60.919 C -27.328,-60.92 0,-33.592 0,0"
       style="fill:#f8f2e6;fill-opacity:1;fill-rule:nonzero;stroke:none;stroke-width:2.29609"
       transform="matrix(0.58070011,0,0,-0.58070011,487.68191,1116.6666)"
       clip-path="url(#clipPath48)" /></g></svg>
